<?xml version="1.0" encoding="utf-8"?>
<svg version="1.1" id="Layer_1" xmlns="http://www.w3.org/2000/svg" x="0px" y="0px"
	 width="20px" height="20px" viewBox="0 0 36 36" xml:space="preserve">
	<g id="search" fill="#ddd">
		<path d="M35.525,31.228l-8.88-8.882c1.444-2.238,2.298-4.895,2.298-7.752c0-7.909-6.438-14.343-14.346-14.343
			c-7.911,0-14.343,6.434-14.343,14.343c0,7.911,6.433,14.344,14.343,14.344c2.856,0,5.513-0.849,7.752-2.294l8.88,8.88
			c0.295,0.297,0.782,0.297,1.076,0l3.22-3.221C35.824,32.008,35.824,31.523,35.525,31.228z M4.81,14.593
			c0-5.396,4.391-9.788,9.788-9.788c5.398,0,9.787,4.392,9.787,9.788c0,5.398-4.389,9.789-9.787,9.789
			C9.2,24.382,4.81,19.991,4.81,14.593z"/>
	</g>
</svg>
